<?xml version="1.0" encoding="utf-8"?>
<!-- Generator: Adobe Illustrator 21.1.0, SVG Export Plug-In . SVG Version: 6.00 Build 0)  -->
<svg version="1.1" id="Layer_1" xmlns="http://www.w3.org/2000/svg" xmlns:xlink="http://www.w3.org/1999/xlink" x="0px" y="0px"
	 viewBox="0 0 64 192" style="enable-background:new 0 0 64 192;" xml:space="preserve">
<style type="text/css">
	.st0{fill:#E9EBF3;}
</style>
<g>
    <!-- left -->
    <path class="st0" d="M52.6,186.4c0,1.1,0,2.3-0.1,3.3h-2.3c-9.7,0.2-16.7-1.9-20.9-6.2c-4.2-4.4-6.3-11.5-6.3-21.3v-44.4
		c0-4.9-1.9-9.8-5.8-14.7l-3.4-4.4l-1.5-1.8l-0.5-0.5c-0.1,0-0.2,0-0.2,0.1C19.1,91,22.9,83.9,22.9,75V31.6
		c0-10.2,2.3-17.7,6.8-22.3c4.5-4.7,11.9-7,22.1-7c0.3,3.2,0.4,5.6,0.3,7.3v0.9c-8.5,0-14,1.4-16.6,4.2c-2.6,2.8-3.9,8.5-3.9,16.9
		V75c0,6-2.9,12.6-8.7,19.9c-0.4,0.4-0.9,1-1.6,1.7c-0.1,0-0.2,0-0.2-0.1c7,7,10.5,14.1,10.5,21.4v44.4c0,7.9,1.5,13.2,4.6,15.9
		c2.8,2.5,8.2,3.9,16.2,4.1L52.6,186.4z"/>
<!-- right -->
	<path class="st0" d="M11.5,182.2c8-0.2,13.4-1.6,16.2-4.1c3.1-2.7,4.6-8,4.6-15.9v-44.4c0-7.2,3.5-14.4,10.5-21.4
		c0,0.1-0.1,0.1-0.2,0.1c-0.7-0.7-1.3-1.3-1.6-1.7C35.3,87.6,32.4,81,32.4,75V31.6c0-8.4-1.3-14.1-3.9-16.9
		c-2.6-2.8-8.1-4.2-16.6-4.2V9.6c-0.1-1.7,0-4.2,0.3-7.3c10.2,0,17.6,2.3,22.1,7c4.5,4.7,6.8,12.1,6.8,22.3V75
		c0,8.9,3.8,16,11.5,21.5c0-0.1-0.1-0.1-0.2-0.1l-0.5,0.5l-1.5,1.8l-3.4,4.4c-3.9,4.9-5.8,9.8-5.8,14.7v44.4
		c0,9.8-2.1,16.9-6.3,21.3c-4.2,4.4-11.2,6.4-20.9,6.2h-2.3c-0.1-1.1-0.1-2.2-0.1-3.3L11.5,182.2z"/>
</g>
</svg>
