<?xml-stylesheet type="text/css" href="voryAni.css"?>
<svg xmlns="http://www.w3.org/2000/svg" width="2500" height="158" viewBox="0 0 1920 158">
			<g id="group" fill="none" fill-rule="evenodd">
				<g id="earth" fill="none" class="move1">
					<!-- 바닥 -->
					<g id="floor" stroke="#EAEAEA">
						<path d="M0 135h1920M404 145h9.055M155 157h9.055M973 145h9.055M1493 145h9.055M1787 145h9.055M540 154h9.055M268 144h9.055M127 146h9.055M837 144h9.055M599 153h9.055M1311 144h9.055M1651 144h9.055M1601 156h9.055M1731 149h9.055M1372 154h9.055M1211 156h5.5M1285 145h5.5M1133 149h5.5M960 153h15.572M761 153h15.572M661 143h15.572M36 143h15.572M578 141h15.572M994 145h4.5M901 148h4.5" />
					</g>
					<!-- 잔디 -->
					<g id="grass" fill="#EAEAEA" fill-rule="nonzero">
						<path d="M183.008 127.457l-2.355 2.355-1.61-3.219a1.216 1.216 0 0 0-2.087 0l-1.61 3.219-2.354-2.355a1.167 1.167 0 0 0-1.992.824v7a1.164 1.164 0 0 0 1.167 1.167h11.666a1.164 1.164 0 0 0 1.167-1.167v-7a1.167 1.167 0 0 0-1.992-.824zm-.341 6.658h-9.334v-3.017l1.509 1.508a1.166 1.166 0 0 0 1.868-.303l1.29-2.58 1.29 2.58a1.167 1.167 0 0 0 1.868.303l1.509-1.508v3.017z" />
						<path d="M1780.008 128.457l-2.355 2.355-1.61-3.219a1.216 1.216 0 0 0-2.087 0l-1.61 3.219-2.354-2.355a1.167 1.167 0 0 0-1.992.824v7a1.164 1.164 0 0 0 1.167 1.167h11.666a1.164 1.164 0 0 0 1.167-1.167v-7a1.167 1.167 0 0 0-1.992-.824zm-.341 6.658h-9.334v-3.017l1.509 1.508a1.166 1.166 0 0 0 1.868-.303l1.29-2.58 1.29 2.58a1.167 1.167 0 0 0 1.868.303l1.509-1.508v3.017z" />
						<path d="M742.008 128.457l-2.355 2.355-1.61-3.219a1.216 1.216 0 0 0-2.087 0l-1.61 3.219-2.354-2.355a1.167 1.167 0 0 0-1.992.824v7a1.164 1.164 0 0 0 1.167 1.167h11.666a1.164 1.164 0 0 0 1.167-1.167v-7a1.167 1.167 0 0 0-1.992-.824zm-.341 6.658h-9.334v-3.017l1.509 1.508a1.166 1.166 0 0 0 1.868-.303l1.29-2.58 1.29 2.58a1.167 1.167 0 0 0 1.868.303l1.509-1.508v3.017z" />
						<path d="M1189.008 128.457l-2.355 2.355-1.61-3.219a1.216 1.216 0 0 0-2.087 0l-1.61 3.219-2.354-2.355a1.167 1.167 0 0 0-1.992.824v7a1.164 1.164 0 0 0 1.167 1.167h11.666a1.164 1.164 0 0 0 1.167-1.167v-7a1.167 1.167 0 0 0-1.992-.824zm-.341 6.658h-9.334v-3.017l1.509 1.508a1.166 1.166 0 0 0 1.868-.303l1.29-2.58 1.29 2.58a1.167 1.167 0 0 0 1.868.303l1.509-1.508v3.017z" />
						<path d="M387.008 128.457l-2.355 2.355-1.61-3.219a1.216 1.216 0 0 0-2.087 0l-1.61 3.219-2.354-2.355a1.167 1.167 0 0 0-1.992.824v7a1.164 1.164 0 0 0 1.167 1.167h11.666a1.164 1.164 0 0 0 1.167-1.167v-7a1.167 1.167 0 0 0-1.992-.824zm-.341 6.658h-9.334v-3.017l1.509 1.508a1.166 1.166 0 0 0 1.868-.303l1.29-2.58 1.29 2.58a1.167 1.167 0 0 0 1.868.303l1.509-1.508v3.017z" />
					</g>
					<!-- 벤치 -->
					<g id="bench" fill='#EAEAEA' fill-rule="nonzero">
						<path d="M426.5 125.333a1.164 1.164 0 0 0 1.167-1.166v-7A1.164 1.164 0 0 0 426.5 116h-21a1.164 1.164 0 0 0-1.167 1.167v7a1.164 1.164 0 0 0 1.167 1.166h1.167v2.334H405.5a1.164 1.164 0 0 0-1.167 1.166v4.667a1.164 1.164 0 0 0 1.167 1.167h1.167V137H409v-2.333h14V137h2.333v-2.333h1.167a1.164 1.164 0 0 0 1.167-1.167v-4.667a1.164 1.164 0 0 0-1.167-1.166h-1.167v-2.334h1.167zm-19.833-7h18.666V123h-18.666v-4.667zm18.666 14h-18.666V130h18.666v2.333z" />
						<path fill="#fff" fill-rule="nonzero" d="M423 127.667h-14v-2.334h14v2.334z" />
					</g>
					<!-- 왼쪽 나무 -->
					<g id="tree" fill="#EAEAEA" fill-rule="nonzero">
						<!-- 큰나무 -->
						<path d="M395 89h4a1 1 0 0 0 0-2h-4a1 1 0 0 0 0 2zM391 93h4a1 1 0 0 0 0-2h-4a1 1 0 0 0 0 2z" />
						<path d="M380 98.367c0 10.436 4.337 19.426 10.385 21.757v15.86c0 .269.109.528.304.718.195.191.459.298.734.298h4.154c.275 0 .54-.107.734-.298.195-.19.304-.45.304-.719v-15.85C402.74 117.784 407 108.898 407 98.367 407 85.824 401.07 76 393.5 76S380 85.824 380 98.367zm14.538 36.6h-2.076v-18.3h2.076v18.3zM393.5 78.033c6.299 0 11.423 9.122 11.423 20.334 0 9.095-3.44 17.055-8.308 19.544v-2.261c0-.27-.109-.528-.304-.719a1.048 1.048 0 0 0-.734-.298h-4.154c-.275 0-.54.107-.734.298-.195.19-.304.45-.304.719v2.25c-4.81-2.488-8.308-10.525-8.308-19.533 0-11.212 5.124-20.334 11.423-20.334z" />
						<!-- 작은나무 -->
						<path d="M365 115h2a1 1 0 0 0 0-2h-2a1 1 0 0 0 0 2zM366 117a.998.998 0 0 0 1 1h2a1 1 0 0 0 0-2h-2a.998.998 0 0 0-1 1z" />
						<path d="M364.688 128.549v7.508a.944.944 0 0 0 .937.943h3.75a.944.944 0 0 0 .938-.943v-7.505c2.85-1.91 4.687-6.52 4.687-11.823 0-7.138-3.294-12.729-7.5-12.729-4.206 0-7.5 5.59-7.5 12.729 0 5.257 1.87 9.927 4.688 11.82zm3.75 6.565h-1.875v-10.371h1.875v10.371zm-.938-29.228c3.049 0 5.625 4.965 5.625 10.843 0 3.813-1.113 7.373-2.813 9.322V123.8a.944.944 0 0 0-.937-.943h-3.75a.944.944 0 0 0-.938.943v2.263c-1.704-1.939-2.812-5.486-2.812-9.334 0-5.878 2.576-10.843 5.625-10.843z" />
						<!-- 오른쪽작은나무 -->
						<path fill="#EAEAEA" fill-rule="nonzero" d="M1468.938 127.5v9.329c0 .31.124.608.347.828.223.22.525.343.84.343h4.75c.315 0 .617-.123.84-.343.223-.22.348-.518.348-.828v-9.325c3.61-2.372 5.937-8.101 5.937-14.69 0-8.868-4.172-15.814-9.5-15.814s-9.5 6.946-9.5 15.814c0 6.532 2.37 12.335 5.938 14.686zm4.75 8.157h-2.376v-12.886h2.376v12.886zm-1.188-36.314c3.862 0 7.125 6.17 7.125 13.471 0 4.739-1.41 9.162-3.563 11.582V121.6c0-.31-.124-.609-.347-.828a1.194 1.194 0 0 0-.84-.343h-4.75c-.315 0-.617.123-.84.343-.223.22-.348.517-.348.828v2.812c-2.158-2.41-3.562-6.816-3.562-11.598 0-7.302 3.263-13.471 7.125-13.471z" />
						<!-- 오른쪽큰나무 -->
						<path d="M1530 98.733c0 10.608 4.337 19.745 10.385 22.114v16.12a1.04 1.04 0 0 0 1.038 1.033h4.154a1.04 1.04 0 0 0 1.038-1.033v-16.11c6.125-2.388 10.385-11.42 10.385-22.124 0-12.748-5.93-22.733-13.5-22.733s-13.5 9.985-13.5 22.733z" />
						<path fill="#fff" fill-rule="nonzero" d="M1545 136h-2v-19h2v19zm-1.5-58c6.341 0 11.5 9.378 11.5 20.906 0 9.35-3.464 17.535-8.364 20.094v-2.325a1.043 1.043 0 0 0-1.045-1.045h-4.182a1.044 1.044 0 0 0-1.045 1.045v2.313c-4.843-2.558-8.364-10.82-8.364-20.082 0-11.528 5.159-20.906 11.5-20.906z" />
					</g>
				</g>
				<g id="earth2" fill="none" class="move2">
					<!-- 바닥 -->
					<g id="floor2" stroke="#EAEAEA">
						<path d="M0 135h1920M404 145h9.055M155 157h9.055M973 145h9.055M1493 145h9.055M1787 145h9.055M540 154h9.055M268 144h9.055M127 146h9.055M837 144h9.055M599 153h9.055M1311 144h9.055M1651 144h9.055M1601 156h9.055M1731 149h9.055M1372 154h9.055M1211 156h5.5M1285 145h5.5M1133 149h5.5M960 153h15.572M761 153h15.572M661 143h15.572M36 143h15.572M578 141h15.572M994 145h4.5M901 148h4.5" />
					</g>

					<!-- 잔디 -->
					<g id="grass2" fill="#EAEAEA" fill-rule="nonzero">
						<path d="M183.008 127.457l-2.355 2.355-1.61-3.219a1.216 1.216 0 0 0-2.087 0l-1.61 3.219-2.354-2.355a1.167 1.167 0 0 0-1.992.824v7a1.164 1.164 0 0 0 1.167 1.167h11.666a1.164 1.164 0 0 0 1.167-1.167v-7a1.167 1.167 0 0 0-1.992-.824zm-.341 6.658h-9.334v-3.017l1.509 1.508a1.166 1.166 0 0 0 1.868-.303l1.29-2.58 1.29 2.58a1.167 1.167 0 0 0 1.868.303l1.509-1.508v3.017z" />
						<path d="M1780.008 128.457l-2.355 2.355-1.61-3.219a1.216 1.216 0 0 0-2.087 0l-1.61 3.219-2.354-2.355a1.167 1.167 0 0 0-1.992.824v7a1.164 1.164 0 0 0 1.167 1.167h11.666a1.164 1.164 0 0 0 1.167-1.167v-7a1.167 1.167 0 0 0-1.992-.824zm-.341 6.658h-9.334v-3.017l1.509 1.508a1.166 1.166 0 0 0 1.868-.303l1.29-2.58 1.29 2.58a1.167 1.167 0 0 0 1.868.303l1.509-1.508v3.017z" />
						<path d="M742.008 128.457l-2.355 2.355-1.61-3.219a1.216 1.216 0 0 0-2.087 0l-1.61 3.219-2.354-2.355a1.167 1.167 0 0 0-1.992.824v7a1.164 1.164 0 0 0 1.167 1.167h11.666a1.164 1.164 0 0 0 1.167-1.167v-7a1.167 1.167 0 0 0-1.992-.824zm-.341 6.658h-9.334v-3.017l1.509 1.508a1.166 1.166 0 0 0 1.868-.303l1.29-2.58 1.29 2.58a1.167 1.167 0 0 0 1.868.303l1.509-1.508v3.017z" />
						<path d="M1189.008 128.457l-2.355 2.355-1.61-3.219a1.216 1.216 0 0 0-2.087 0l-1.61 3.219-2.354-2.355a1.167 1.167 0 0 0-1.992.824v7a1.164 1.164 0 0 0 1.167 1.167h11.666a1.164 1.164 0 0 0 1.167-1.167v-7a1.167 1.167 0 0 0-1.992-.824zm-.341 6.658h-9.334v-3.017l1.509 1.508a1.166 1.166 0 0 0 1.868-.303l1.29-2.58 1.29 2.58a1.167 1.167 0 0 0 1.868.303l1.509-1.508v3.017z" />
						<path d="M387.008 128.457l-2.355 2.355-1.61-3.219a1.216 1.216 0 0 0-2.087 0l-1.61 3.219-2.354-2.355a1.167 1.167 0 0 0-1.992.824v7a1.164 1.164 0 0 0 1.167 1.167h11.666a1.164 1.164 0 0 0 1.167-1.167v-7a1.167 1.167 0 0 0-1.992-.824zm-.341 6.658h-9.334v-3.017l1.509 1.508a1.166 1.166 0 0 0 1.868-.303l1.29-2.58 1.29 2.58a1.167 1.167 0 0 0 1.868.303l1.509-1.508v3.017z" />
					</g>

					<!-- 벤치 -->
					<g id="bench2" fill='#EAEAEA' fill-rule="nonzero">
						<path d="M426.5 125.333a1.164 1.164 0 0 0 1.167-1.166v-7A1.164 1.164 0 0 0 426.5 116h-21a1.164 1.164 0 0 0-1.167 1.167v7a1.164 1.164 0 0 0 1.167 1.166h1.167v2.334H405.5a1.164 1.164 0 0 0-1.167 1.166v4.667a1.164 1.164 0 0 0 1.167 1.167h1.167V137H409v-2.333h14V137h2.333v-2.333h1.167a1.164 1.164 0 0 0 1.167-1.167v-4.667a1.164 1.164 0 0 0-1.167-1.166h-1.167v-2.334h1.167zm-19.833-7h18.666V123h-18.666v-4.667zm18.666 14h-18.666V130h18.666v2.333z" />
						<path fill="#fff" fill-rule="nonzero" d="M423 127.667h-14v-2.334h14v2.334z" />
					</g>

					<!-- 왼쪽 나무 -->
					<g id="tree2" fill="#EAEAEA" fill-rule="nonzero">
						<!-- 큰나무 -->
						<path d="M395 89h4a1 1 0 0 0 0-2h-4a1 1 0 0 0 0 2zM391 93h4a1 1 0 0 0 0-2h-4a1 1 0 0 0 0 2z" />
						<path d="M380 98.367c0 10.436 4.337 19.426 10.385 21.757v15.86c0 .269.109.528.304.718.195.191.459.298.734.298h4.154c.275 0 .54-.107.734-.298.195-.19.304-.45.304-.719v-15.85C402.74 117.784 407 108.898 407 98.367 407 85.824 401.07 76 393.5 76S380 85.824 380 98.367zm14.538 36.6h-2.076v-18.3h2.076v18.3zM393.5 78.033c6.299 0 11.423 9.122 11.423 20.334 0 9.095-3.44 17.055-8.308 19.544v-2.261c0-.27-.109-.528-.304-.719a1.048 1.048 0 0 0-.734-.298h-4.154c-.275 0-.54.107-.734.298-.195.19-.304.45-.304.719v2.25c-4.81-2.488-8.308-10.525-8.308-19.533 0-11.212 5.124-20.334 11.423-20.334z" />
						<!-- 작은나무 -->
						<path d="M365 115h2a1 1 0 0 0 0-2h-2a1 1 0 0 0 0 2zM366 117a.998.998 0 0 0 1 1h2a1 1 0 0 0 0-2h-2a.998.998 0 0 0-1 1z" />
						<path d="M364.688 128.549v7.508a.944.944 0 0 0 .937.943h3.75a.944.944 0 0 0 .938-.943v-7.505c2.85-1.91 4.687-6.52 4.687-11.823 0-7.138-3.294-12.729-7.5-12.729-4.206 0-7.5 5.59-7.5 12.729 0 5.257 1.87 9.927 4.688 11.82zm3.75 6.565h-1.875v-10.371h1.875v10.371zm-.938-29.228c3.049 0 5.625 4.965 5.625 10.843 0 3.813-1.113 7.373-2.813 9.322V123.8a.944.944 0 0 0-.937-.943h-3.75a.944.944 0 0 0-.938.943v2.263c-1.704-1.939-2.812-5.486-2.812-9.334 0-5.878 2.576-10.843 5.625-10.843z" />
						<!-- 오른쪽작은나무 -->
						<path fill="#EAEAEA" fill-rule="nonzero" d="M1468.938 127.5v9.329c0 .31.124.608.347.828.223.22.525.343.84.343h4.75c.315 0 .617-.123.84-.343.223-.22.348-.518.348-.828v-9.325c3.61-2.372 5.937-8.101 5.937-14.69 0-8.868-4.172-15.814-9.5-15.814s-9.5 6.946-9.5 15.814c0 6.532 2.37 12.335 5.938 14.686zm4.75 8.157h-2.376v-12.886h2.376v12.886zm-1.188-36.314c3.862 0 7.125 6.17 7.125 13.471 0 4.739-1.41 9.162-3.563 11.582V121.6c0-.31-.124-.609-.347-.828a1.194 1.194 0 0 0-.84-.343h-4.75c-.315 0-.617.123-.84.343-.223.22-.348.517-.348.828v2.812c-2.158-2.41-3.562-6.816-3.562-11.598 0-7.302 3.263-13.471 7.125-13.471z" />
						<!-- 오른쪽큰나무 -->
						<path d="M1530 98.733c0 10.608 4.337 19.745 10.385 22.114v16.12a1.04 1.04 0 0 0 1.038 1.033h4.154a1.04 1.04 0 0 0 1.038-1.033v-16.11c6.125-2.388 10.385-11.42 10.385-22.124 0-12.748-5.93-22.733-13.5-22.733s-13.5 9.985-13.5 22.733z" />
						<path fill="#fff" fill-rule="nonzero" d="M1545 136h-2v-19h2v19zm-1.5-58c6.341 0 11.5 9.378 11.5 20.906 0 9.35-3.464 17.535-8.364 20.094v-2.325a1.043 1.043 0 0 0-1.045-1.045h-4.182a1.044 1.044 0 0 0-1.045 1.045v2.313c-4.843-2.558-8.364-10.82-8.364-20.082 0-11.528 5.159-20.906 11.5-20.906z" />
					</g>
				</g>
				<g id="earth3" fill="none" class="move3">
					<!-- 바닥 -->
					<g id="floor3" stroke="#EAEAEA">
						<path d="M0 135h1920M404 145h9.055M155 157h9.055M973 145h9.055M1493 145h9.055M1787 145h9.055M540 154h9.055M268 144h9.055M127 146h9.055M837 144h9.055M599 153h9.055M1311 144h9.055M1651 144h9.055M1601 156h9.055M1731 149h9.055M1372 154h9.055M1211 156h5.5M1285 145h5.5M1133 149h5.5M960 153h15.572M761 153h15.572M661 143h15.572M36 143h15.572M578 141h15.572M994 145h4.5M901 148h4.5" />
					</g>

					<!-- 잔디 -->
					<g id="grass3" fill="#EAEAEA" fill-rule="nonzero">
						<path d="M183.008 127.457l-2.355 2.355-1.61-3.219a1.216 1.216 0 0 0-2.087 0l-1.61 3.219-2.354-2.355a1.167 1.167 0 0 0-1.992.824v7a1.164 1.164 0 0 0 1.167 1.167h11.666a1.164 1.164 0 0 0 1.167-1.167v-7a1.167 1.167 0 0 0-1.992-.824zm-.341 6.658h-9.334v-3.017l1.509 1.508a1.166 1.166 0 0 0 1.868-.303l1.29-2.58 1.29 2.58a1.167 1.167 0 0 0 1.868.303l1.509-1.508v3.017z" />
						<path d="M1780.008 128.457l-2.355 2.355-1.61-3.219a1.216 1.216 0 0 0-2.087 0l-1.61 3.219-2.354-2.355a1.167 1.167 0 0 0-1.992.824v7a1.164 1.164 0 0 0 1.167 1.167h11.666a1.164 1.164 0 0 0 1.167-1.167v-7a1.167 1.167 0 0 0-1.992-.824zm-.341 6.658h-9.334v-3.017l1.509 1.508a1.166 1.166 0 0 0 1.868-.303l1.29-2.58 1.29 2.58a1.167 1.167 0 0 0 1.868.303l1.509-1.508v3.017z" />
						<path d="M742.008 128.457l-2.355 2.355-1.61-3.219a1.216 1.216 0 0 0-2.087 0l-1.61 3.219-2.354-2.355a1.167 1.167 0 0 0-1.992.824v7a1.164 1.164 0 0 0 1.167 1.167h11.666a1.164 1.164 0 0 0 1.167-1.167v-7a1.167 1.167 0 0 0-1.992-.824zm-.341 6.658h-9.334v-3.017l1.509 1.508a1.166 1.166 0 0 0 1.868-.303l1.29-2.58 1.29 2.58a1.167 1.167 0 0 0 1.868.303l1.509-1.508v3.017z" />
						<path d="M1189.008 128.457l-2.355 2.355-1.61-3.219a1.216 1.216 0 0 0-2.087 0l-1.61 3.219-2.354-2.355a1.167 1.167 0 0 0-1.992.824v7a1.164 1.164 0 0 0 1.167 1.167h11.666a1.164 1.164 0 0 0 1.167-1.167v-7a1.167 1.167 0 0 0-1.992-.824zm-.341 6.658h-9.334v-3.017l1.509 1.508a1.166 1.166 0 0 0 1.868-.303l1.29-2.58 1.29 2.58a1.167 1.167 0 0 0 1.868.303l1.509-1.508v3.017z" />
						<path d="M387.008 128.457l-2.355 2.355-1.61-3.219a1.216 1.216 0 0 0-2.087 0l-1.61 3.219-2.354-2.355a1.167 1.167 0 0 0-1.992.824v7a1.164 1.164 0 0 0 1.167 1.167h11.666a1.164 1.164 0 0 0 1.167-1.167v-7a1.167 1.167 0 0 0-1.992-.824zm-.341 6.658h-9.334v-3.017l1.509 1.508a1.166 1.166 0 0 0 1.868-.303l1.29-2.58 1.29 2.58a1.167 1.167 0 0 0 1.868.303l1.509-1.508v3.017z" />
					</g>

					<!-- 벤치 -->
					<g id="bench3" fill='#EAEAEA' fill-rule="nonzero">
						<path d="M426.5 125.333a1.164 1.164 0 0 0 1.167-1.166v-7A1.164 1.164 0 0 0 426.5 116h-21a1.164 1.164 0 0 0-1.167 1.167v7a1.164 1.164 0 0 0 1.167 1.166h1.167v2.334H405.5a1.164 1.164 0 0 0-1.167 1.166v4.667a1.164 1.164 0 0 0 1.167 1.167h1.167V137H409v-2.333h14V137h2.333v-2.333h1.167a1.164 1.164 0 0 0 1.167-1.167v-4.667a1.164 1.164 0 0 0-1.167-1.166h-1.167v-2.334h1.167zm-19.833-7h18.666V123h-18.666v-4.667zm18.666 14h-18.666V130h18.666v2.333z" />
						<path fill="#fff" fill-rule="nonzero" d="M423 127.667h-14v-2.334h14v2.334z" />
					</g>

					<!-- 왼쪽 나무 -->
					<g id="tree3" fill="#EAEAEA" fill-rule="nonzero">
						<!-- 큰나무 -->
						<path d="M395 89h4a1 1 0 0 0 0-2h-4a1 1 0 0 0 0 2zM391 93h4a1 1 0 0 0 0-2h-4a1 1 0 0 0 0 2z" />
						<path d="M380 98.367c0 10.436 4.337 19.426 10.385 21.757v15.86c0 .269.109.528.304.718.195.191.459.298.734.298h4.154c.275 0 .54-.107.734-.298.195-.19.304-.45.304-.719v-15.85C402.74 117.784 407 108.898 407 98.367 407 85.824 401.07 76 393.5 76S380 85.824 380 98.367zm14.538 36.6h-2.076v-18.3h2.076v18.3zM393.5 78.033c6.299 0 11.423 9.122 11.423 20.334 0 9.095-3.44 17.055-8.308 19.544v-2.261c0-.27-.109-.528-.304-.719a1.048 1.048 0 0 0-.734-.298h-4.154c-.275 0-.54.107-.734.298-.195.19-.304.45-.304.719v2.25c-4.81-2.488-8.308-10.525-8.308-19.533 0-11.212 5.124-20.334 11.423-20.334z" />
						<!-- 작은나무 -->
						<path d="M365 115h2a1 1 0 0 0 0-2h-2a1 1 0 0 0 0 2zM366 117a.998.998 0 0 0 1 1h2a1 1 0 0 0 0-2h-2a.998.998 0 0 0-1 1z" />
						<path d="M364.688 128.549v7.508a.944.944 0 0 0 .937.943h3.75a.944.944 0 0 0 .938-.943v-7.505c2.85-1.91 4.687-6.52 4.687-11.823 0-7.138-3.294-12.729-7.5-12.729-4.206 0-7.5 5.59-7.5 12.729 0 5.257 1.87 9.927 4.688 11.82zm3.75 6.565h-1.875v-10.371h1.875v10.371zm-.938-29.228c3.049 0 5.625 4.965 5.625 10.843 0 3.813-1.113 7.373-2.813 9.322V123.8a.944.944 0 0 0-.937-.943h-3.75a.944.944 0 0 0-.938.943v2.263c-1.704-1.939-2.812-5.486-2.812-9.334 0-5.878 2.576-10.843 5.625-10.843z" />
						<!-- 오른쪽작은나무 -->
						<path fill="#EAEAEA" fill-rule="nonzero" d="M1468.938 127.5v9.329c0 .31.124.608.347.828.223.22.525.343.84.343h4.75c.315 0 .617-.123.84-.343.223-.22.348-.518.348-.828v-9.325c3.61-2.372 5.937-8.101 5.937-14.69 0-8.868-4.172-15.814-9.5-15.814s-9.5 6.946-9.5 15.814c0 6.532 2.37 12.335 5.938 14.686zm4.75 8.157h-2.376v-12.886h2.376v12.886zm-1.188-36.314c3.862 0 7.125 6.17 7.125 13.471 0 4.739-1.41 9.162-3.563 11.582V121.6c0-.31-.124-.609-.347-.828a1.194 1.194 0 0 0-.84-.343h-4.75c-.315 0-.617.123-.84.343-.223.22-.348.517-.348.828v2.812c-2.158-2.41-3.562-6.816-3.562-11.598 0-7.302 3.263-13.471 7.125-13.471z" />
						<!-- 오른쪽큰나무 -->
						<path d="M1530 98.733c0 10.608 4.337 19.745 10.385 22.114v16.12a1.04 1.04 0 0 0 1.038 1.033h4.154a1.04 1.04 0 0 0 1.038-1.033v-16.11c6.125-2.388 10.385-11.42 10.385-22.124 0-12.748-5.93-22.733-13.5-22.733s-13.5 9.985-13.5 22.733z" />
						<path fill="#fff" fill-rule="nonzero" d="M1545 136h-2v-19h2v19zm-1.5-58c6.341 0 11.5 9.378 11.5 20.906 0 9.35-3.464 17.535-8.364 20.094v-2.325a1.043 1.043 0 0 0-1.045-1.045h-4.182a1.044 1.044 0 0 0-1.045 1.045v2.313c-4.843-2.558-8.364-10.82-8.364-20.082 0-11.528 5.159-20.906 11.5-20.906z" />
					</g>
				</g>
				<!-- 구름 -->
				<g id="cloud" fill="#EAEAEA" fill-rule="nonzero" class="upDown">
					<path d="M993.802 78.724a3.4 3.4 0 0 0-.795-.094c-2.21 0-4.007 2.152-4.007 4.796.003.383.044.765.123 1.14.111.543.59.934 1.144.934h16.133c.555 0 1.033-.39 1.144-.934.079-.375.12-.757.123-1.14 0-2.692-1.882-4.868-4.126-4.794A5.381 5.381 0 0 0 998.69 75a5.407 5.407 0 0 0-4.887 3.724zm1.888 1.863c.342-1.885 1.603-3.254 2.999-3.254a3.426 3.426 0 0 1 2.937 2.942 1.165 1.165 0 0 0 1.597.795c.137-.065.286-.101.437-.107.847 0 1.572.986 1.663 2.204h-13.98c.121-1.608 1.403-2.757 2.457-1.887a1.17 1.17 0 0 0 1.89-.693z" />
					<path d="M475.541 40.632a5.063 5.063 0 0 0-9.739.093 3.4 3.4 0 0 0-.795-.095c-2.21 0-4.007 2.152-4.007 4.797.003.382.044.764.123 1.139.111.543.59.934 1.144.934H478.4c.555 0 1.033-.39 1.144-.934.079-.375.12-.757.123-1.14 0-2.692-1.875-4.881-4.126-4.794zm-12.197 4.535c.12-1.608 1.402-2.757 2.456-1.887a1.17 1.17 0 0 0 1.89-.693c.342-1.885 1.603-3.253 2.999-3.253a3.426 3.426 0 0 1 2.937 2.941 1.165 1.165 0 0 0 1.597.796c.137-.065.286-.102.437-.108.847 0 1.572.986 1.663 2.204h-13.98z" />
					<path d="M362.802 9.724a3.4 3.4 0 0 0-.795-.094c-2.21 0-4.007 2.152-4.007 4.796.003.383.044.765.123 1.14.111.543.59.934 1.144.934H375.4c.555 0 1.033-.39 1.144-.934.079-.375.12-.757.123-1.14 0-2.692-1.882-4.868-4.126-4.794A5.381 5.381 0 0 0 367.69 6a5.407 5.407 0 0 0-4.887 3.724zm1.888 1.863c.342-1.885 1.603-3.254 2.999-3.254a3.426 3.426 0 0 1 2.937 2.942 1.165 1.165 0 0 0 1.597.795c.137-.065.286-.101.437-.107.847 0 1.572.986 1.663 2.204h-13.98c.121-1.608 1.403-2.757 2.457-1.887a1.17 1.17 0 0 0 1.89-.693z" />
					<path d="M1535.8 40.805c-.65-2.273-2.688-3.827-4.99-3.805-2.304.023-4.313 1.616-4.922 3.902a3.367 3.367 0 0 0-.81-.1c-2.248 0-4.078 2.256-4.078 5.026.003.4.045.8.125 1.193.113.57.6.979 1.165.979h16.42c.565 0 1.052-.41 1.165-.979.08-.392.122-.792.125-1.193 0-2.82-1.908-5.115-4.2-5.023zm-12.415 4.75c.122-1.683 1.428-2.888 2.5-1.976.326.275.769.352 1.164.204.396-.15.685-.503.76-.93.348-1.975 1.632-3.408 3.053-3.408 1.557.216 2.781 1.478 2.99 3.081.082.35.31.646.624.807.314.16.68.17 1.001.026.14-.068.29-.106.444-.112.863 0 1.6 1.033 1.694 2.309h-14.23z" />
					<path d="M1429.888 3.902a3.367 3.367 0 0 0-.81-.1c-2.248 0-4.078 2.255-4.078 5.026.003.4.045.8.125 1.193.113.57.6.979 1.165.979h16.42c.565 0 1.052-.41 1.165-.979.08-.392.122-.792.125-1.193 0-2.82-1.916-5.1-4.2-5.023-.729-2.192-2.688-3.702-4.938-3.805-2.285.11-4.265 1.664-4.974 3.902zm1.922 1.951c.347-1.975 1.631-3.409 3.052-3.409 1.557.217 2.781 1.479 2.99 3.082.082.35.31.646.624.807.314.16.68.17 1.001.026.14-.068.29-.106.444-.112.863 0 1.6 1.033 1.694 2.309h-14.23c.123-1.685 1.428-2.889 2.5-1.977.326.275.769.352 1.164.203.396-.149.685-.503.76-.929z" />
				</g>
			</g>
		</svg>