<svg height="20" viewBox="0 0 106 20" width="106" xmlns="http://www.w3.org/2000/svg"><g fill="none" fill-rule="evenodd"><path d="m41.0658257.00001376h2.3628899l-4.8356881 16.00165134h-2.0991284l-2.8796789-11.94628437-2.9014679 11.94628437h-2.0661009l-4.8466514-16.00165134h2.362844l3.4728899 12.33100914 3.1212386-12.33100914h1.736422l3.1105505 12.33100914zm5.5280459 16.00168344h-2.1760551v-16.0016972h2.1760551v5.2862844c.3516972-.52036697.8077981-.91220183 1.3683027-1.1759633.5604587-.26376147 1.2144037-.3956422 1.9617431-.3956422 1.4652753 0 2.6044037.4687156 3.4176606 1.40674312s1.2199082 2.25298165 1.2199082 3.94545871v6.93481647h-2.176055v-6.23142197c0-1.34082569-.2269266-2.33706422-.6813762-2.98931193-.4544495-.65229358-1.1498623-.97811926-2.0878899-.97811926-.5714679 0-1.0770183.13188073-1.5166055.3956422-.439633.26376147-.7913302.64454128-1.0550917 1.14298165-.1610092.30055046-.2763762.66651376-.3461927 1.09899083-.0697706.43247706-.1044036 1.12100917-.1044036 2.06614678zm20.1952247-.0000091v-1.4836698c-.5566513.5786239-1.1775688 1.0166056-1.8627981 1.3133487-.6852294.2967431-1.416101.4450917-2.1925688.4450917-1.8172019 0-3.3261927-.6061009-4.5279358-1.8188532-1.201789-1.2127982-1.8023853-2.7311009-1.8023853-4.55545871 0-.85009174.15-1.6556422.4505963-2.41779817.3005504-.76220183.7291743-1.43261468 1.2858257-2.01123853.6083027-.63743119 1.273211-1.10834862 1.9947247-1.4122477.7215138-.30385322 1.5441285-.45610092 2.4672936-.45610092.8281193 0 1.5897248.14674312 2.2859633.43963303.6962386.2928899 1.3298165.73633027 1.9012844 1.32981651v-1.46169725h2.1980276v12.08917434zm-8.1327064-6.12151379c0 1.22376149.405 2.24912849 1.2144037 3.07724769.8094495.8281193 1.8007339 1.2418808 2.972844 1.2418808 1.0699083 0 2.0128441-.4159634 2.83-1.2473854.8171101-.8313761 1.225367-1.8040367 1.225367-2.9178899 0-1.18692658-.405-2.20353209-1.2144037-3.04977062-.8094495-.84623853-1.771055-1.2693578-2.8849082-1.2693578-1.1429817 0-2.1194496.40279817-2.9288991 1.20889909-.8094037.80614678-1.2144037 1.79142201-1.2144037 2.95637614zm16.2900688 6.12152289h-2.3189449v-13.84761463h-4.1146789v-2.15408257h10.5483486v2.15408257h-4.1147248zm13.001945-.0000091v-1.4836698c-.5566514.5786239-1.1776147 1.0166056-1.8628441 1.3133487-.6852293.2967431-1.4161009.4450917-2.1925229.4450917-1.8172477 0-3.3261927-.6061009-4.5279817-1.8188532-1.2017431-1.2127982-1.8023853-2.7311009-1.8023853-4.55545871 0-.85009174.15-1.6556422.4505964-2.41779817.3005963-.76220183.7291743-1.43261468 1.2858715-2.01123853.6083028-.63743119 1.273211-1.10834862 1.9947248-1.4122477.7214679-.30385322 1.5441284-.45610092 2.4672936-.45610092.8280734 0 1.5897247.14674312 2.2859633.43963303.6961926.2928899 1.3297706.73633027 1.9012844 1.32981651v-1.46169725h2.1980275v12.08917434zm-8.1327523-6.12151379c0 1.22376149.405 2.24912849 1.2144495 3.07724769.8094037.8281193 1.8006881 1.2418808 2.9727982 1.2418808 1.0699082 0 2.012844-.4159634 2.83-1.2473854.8171101-.8313761 1.225367-1.8040367 1.225367-2.9178899 0-1.18692658-.4049542-2.20353209-1.2143578-3.04977062-.8094496-.84623853-1.771101-1.2693578-2.8849542-1.2693578-1.1429816 0-2.1194495.40279817-2.9288532 1.20889909-.8094495.80614678-1.2144495 1.79142201-1.2144495 2.95637614zm14.9911559 4.65981649v5.3742202h-2.176055v-16.00169724h2.1980275v1.48366973c.5566973-.57146789 1.1776147-1.00559633 1.8628441-1.30233945.6852752-.29674312 1.416055-.44509175 2.1925229-.44509175 1.8244032 0 3.3372022.60444954 4.5389452 1.8133945 1.201835 1.20889908 1.802385 2.72555046 1.802385 4.54990821 0 .8423854-.15 1.6446789-.450596 2.4068349-.300597.762156-.732477 1.4397248-1.296789 2.033211-.608349.6374312-1.273211 1.1083486-1.994771 1.4122477-.721468.3038532-1.5440825.4560551-2.4672935.4560551-.8204128 0-1.5809174-.1483487-2.2804587-.4450918-.6994954-.2967431-1.3424312-.7418348-1.9287615-1.3353211zm-.0659174-4.65981649c0 1.19408259.4011009 2.21288989 1.2033945 3.05527519.8023395.8423854 1.7600917 1.2638533 2.873945 1.2638533 1.1358256 0 2.1101376-.4049542 2.9233946-1.2144037.813303-.8094037 1.219908-1.7930275 1.219908-2.9508716 0-1.22376144-.402798-2.24912842-1.208945-3.07724768-.806101-.82811927-1.791376-1.24188074-2.9563301-1.24188074-1.0699083 0-2.0128899.41596331-2.8299541 1.24738532-.817156.83142202-1.2254129 1.8040367-1.2254129 2.91788991z" fill="#797979"/><g fill-rule="nonzero"><path d="m0 11.045h2.4v4.968h-2.4z" fill="#f25022"/><path d="m4.4 5.6h2.4v10.413h-2.4z" fill="#ffb902"/><path d="m8.8 0h2.4v16h-2.4z" fill="#80ba01"/><path d="m15.6 0h3.6v2.4h-3.6v13.6h-2.4v-16z" fill="#19a0e5"/></g></g></svg>