<?xml version="1.0" encoding="UTF-8"?>
<svg width="1920px" height="128px" viewBox="0 0 1920 128" version="1.1" xmlns="http://www.w3.org/2000/svg" xmlns:xlink="http://www.w3.org/1999/xlink">
    <!-- Generator: Sketch 52.5 (67469) - http://www.bohemiancoding.com/sketch -->
  <title>Group 11</title>
  <desc>Created with Sketch.</desc>
  <g id="Page-1" stroke="none" stroke-width="1" fill="none" fill-rule="evenodd">
    <g id="너드팩토리" transform="translate(0.000000, -486.000000)">
      <g id="header" transform="translate(0.000000, 238.000000)">
        <g id="Group-11" transform="translate(0.000000, 248.000000)">
          <g id="Group-10" transform="translate(0.000000, 41.000000)">
            <g id="Group-7" transform="translate(0.000000, 63.000000)" stroke="#EAEAEA">
              <g id="line">
                <path d="M0,1 L1920,1" id="Path-5"></path>
                <path d="M404,11 L413.055385,11" id="Path-8"></path>
                <path d="M155,23 L164.055385,23" id="Path-8-Copy-22"></path>
                <path d="M973,11 L982.055385,11" id="Path-8-Copy-3"></path>
                <path d="M1493,11 L1502.05539,11" id="Path-8-Copy-5"></path>
                <path d="M1787,11 L1796.05539,11" id="Path-8-Copy-7"></path>
                <path d="M540,20 L549.055385,20" id="Path-8-Copy"></path>
                <path d="M268,10 L277.055385,10" id="Path-8-Copy-2"></path>
                <path d="M127,12 L136.055385,12" id="Path-8-Copy-23"></path>
                <path d="M837,10 L846.055385,10" id="Path-8-Copy-4"></path>
                <path d="M599,19 L608.055385,19" id="Path-8-Copy-18"></path>
                <path d="M1311,10 L1320.05539,10" id="Path-8-Copy-6"></path>
                <path d="M1651,10 L1660.05539,10" id="Path-8-Copy-8"></path>
                <path d="M1601,22 L1610.05539,22" id="Path-8-Copy-9"></path>
                <path d="M1731,15 L1740.05539,15" id="Path-8-Copy-21"></path>
                <path d="M1372,20 L1381.05539,20" id="Path-8-Copy-10"></path>
                <path d="M1211,22 L1216.5,22" id="Path-8-Copy-11"></path>
                <path d="M1285,11 L1290.5,11" id="Path-8-Copy-12"></path>
                <path d="M1133,15 L1138.5,15" id="Path-8-Copy-20"></path>
                <path d="M960,19 L975.572412,19" id="Path-8-Copy-13"></path>
                <path d="M761,19 L776.572412,19" id="Path-8-Copy-15"></path>
                <path d="M661,9 L676.572412,9" id="Path-8-Copy-16"></path>
                <path d="M36,9 L51.5724115,9" id="Path-8-Copy-24"></path>
                <path d="M578,7 L593.572412,7" id="Path-8-Copy-17"></path>
                <path d="M994,11 L998.5,11" id="Path-8-Copy-14"></path>
                <path d="M901,14 L905.5,14" id="Path-8-Copy-19"></path>
              </g>
            </g>
            <g id="Group-5" transform="translate(333.000000, 48.000000)" fill-rule="nonzero">
              <rect id="Rectangle" stroke="#E4E4E4" stroke-width="2" fill="#FFFFFF" x="4" y="0" width="18" height="15"></rect>
              <rect id="Rectangle" fill="#E4E4E4" x="0" y="8" width="25" height="2"></rect>
              <rect id="Rectangle-Copy" fill="#E4E4E4" x="0" y="14" width="25" height="2"></rect>
            </g>
            <g id="Group-13" transform="translate(287.000000, 13.000000)" fill-rule="nonzero">
              <rect id="Rectangle" fill="#E4E4E4" x="9" y="35" width="2" height="14"></rect>
              <rect id="Rectangle" fill="#E4E4E4" transform="translate(10.000000, 50.000000) rotate(-270.000000) translate(-10.000000, -50.000000) " x="9" y="43" width="2" height="14"></rect>
              <rect id="Rectangle" stroke="#E4E4E4" stroke-width="2" fill="#FFFFFF" x="0" y="0" width="19" height="36" rx="9.5"></rect>
            </g>
            <g id="Group-13-Copy-2" transform="translate(1464.000000, 13.000000)" fill-rule="nonzero">
              <rect id="Rectangle" fill="#E4E4E4" x="9" y="35" width="2" height="14"></rect>
              <rect id="Rectangle" fill="#E4E4E4" transform="translate(10.000000, 50.000000) rotate(-270.000000) translate(-10.000000, -50.000000) " x="9" y="43" width="2" height="14"></rect>
              <rect id="Rectangle" stroke="#E4E4E4" stroke-width="2" fill="#FFFFFF" x="0" y="0" width="19" height="36" rx="9.5"></rect>
            </g>
            <g id="Group-13-Copy-4" transform="translate(1548.000000, 0.000000)" fill-rule="nonzero">
              <rect id="Rectangle" fill="#E4E4E4" x="11" y="44" width="2" height="18"></rect>
              <polygon id="Rectangle" fill="#E4E4E4" transform="translate(12.000000, 63.000000) rotate(-270.000000) translate(-12.000000, -63.000000) " points="11 54 13 54 13 72 11 72"></polygon>
              <rect id="Rectangle" stroke="#E4E4E4" stroke-width="2" fill="#FFFFFF" x="0" y="0" width="24" height="45" rx="12"></rect>
            </g>
            <g id="Group-13-Copy" transform="translate(313.000000, 29.000000)" fill-rule="nonzero">
              <rect id="Rectangle" fill="#E4E4E4" x="6" y="19" width="2" height="14"></rect>
              <rect id="Rectangle" fill="#E4E4E4" transform="translate(7.000000, 34.000000) rotate(-270.000000) translate(-7.000000, -34.000000) " x="6" y="27" width="2" height="14"></rect>
              <rect id="Rectangle" stroke="#E4E4E4" stroke-width="2" fill="#FFFFFF" x="0" y="0" width="13" height="24" rx="6.5"></rect>
            </g>
            <g id="Group-13-Copy-3" transform="translate(1490.000000, 29.000000)" fill-rule="nonzero">
              <rect id="Rectangle" fill="#E4E4E4" x="6" y="19" width="2" height="14"></rect>
              <rect id="Rectangle" fill="#E4E4E4" transform="translate(7.000000, 34.000000) rotate(-270.000000) translate(-7.000000, -34.000000) " x="6" y="27" width="2" height="14"></rect>
              <rect id="Rectangle" stroke="#E4E4E4" stroke-width="2" fill="#FFFFFF" x="0" y="0" width="13" height="24" rx="6.5"></rect>
            </g>
            <g id="Group-8" transform="translate(362.000000, 59.000000)" fill-rule="nonzero">
              <rect id="Rectangle-Copy" fill="#E4E4E4" x="0" y="3" width="16" height="2"></rect>
              <polygon id="Rectangle" stroke="#E4E4E4" stroke-width="2" fill="#FFFFFF" points="3 0 5.5 1.39285714 8 0 10.5 1.39285714 13 0 13 4 3 4"></polygon>
            </g>
            <g id="Group-8-Copy" transform="translate(748.000000, 59.000000)" fill-rule="nonzero">
              <rect id="Rectangle-Copy" fill="#E4E4E4" x="0" y="3" width="16" height="2"></rect>
              <polygon id="Rectangle" stroke="#E4E4E4" stroke-width="2" fill="#FFFFFF" points="3 0 5.5 1.39285714 8 0 10.5 1.39285714 13 0 13 4 3 4"></polygon>
            </g>
            <g id="Group-8-Copy-2" transform="translate(1176.000000, 59.000000)" fill-rule="nonzero">
              <rect id="Rectangle-Copy" fill="#E4E4E4" x="0" y="3" width="16" height="2"></rect>
              <polygon id="Rectangle" stroke="#E4E4E4" stroke-width="2" fill="#FFFFFF" points="3 0 5.5 1.39285714 8 0 10.5 1.39285714 13 0 13 4 3 4"></polygon>
            </g>
          </g>
          <g id="Group-12" transform="translate(356.000000, 0.000000)" fill-rule="nonzero">
            <g id="Group-6" transform="translate(1142.000000, 33.000000)">
              <path d="M4.88800056,3.90180114 C4.62301632,3.83615451 4.35107422,3.80273438 4.07855217,3.80273438 C1.82995605,3.80273438 0,6.05740025 0,8.82769097 C0.0028991625,9.22873264 0.0446471797,9.62858081 0.125244141,10.0212674 C0.238311805,10.5906032 0.724792406,11 1.28955078,11 L17.7104492,11 C18.2752076,11 18.7616882,10.5906032 18.8747559,10.0212674 C18.9553528,9.62858081 18.9971009,9.22873264 19,8.82769097 C19,6.00726989 17.0842285,3.72753914 14.8008424,3.80512153 C14.0714111,1.61252178 12.1115723,0.102647569 9.86181641,0 C7.57727051,0.110405778 5.59713741,1.66384549 4.88800056,3.90180114 Z" id="Path" fill="#EAEAEA"></path>
              <path d="M6.80957031,5.85329861 C7.1574707,3.87792961 8.44122322,2.44444444 9.86181641,2.44444444 C11.4192506,2.6610786 12.64328,3.92268876 12.8514404,5.52625868 C12.9337768,5.87657339 13.1622314,6.17198358 13.4759216,6.33251957 C13.7896119,6.49365231 14.156067,6.50320092 14.4772949,6.359375 C14.6164551,6.29134122 14.7677917,6.25314678 14.9214478,6.24717882 C15.7842408,6.24717882 16.5217896,7.27962247 16.6145631,8.55555556 L2.38543694,8.55555556 C2.50836189,6.87141919 3.81298828,5.66710069 4.88568108,6.57899306 C5.21096805,6.85411237 5.65396122,6.93109817 6.04940792,6.78249779 C6.44485477,6.63330082 6.73361202,6.27940531 6.80957031,5.85329861 Z" id="Path" fill="#FFFFFF"></path>
            </g>
            <g id="Group-6-Copy" transform="translate(1219.000000, 0.000000)">
              <path d="M4.88800056,3.90180114 C4.62301632,3.83615451 4.35107422,3.80273438 4.07855217,3.80273438 C1.82995605,3.80273438 0,6.05740025 0,8.82769097 C0.0028991625,9.22873264 0.0446471797,9.62858081 0.125244141,10.0212674 C0.238311805,10.5906032 0.724792406,11 1.28955078,11 L17.7104492,11 C18.2752076,11 18.7616882,10.5906032 18.8747559,10.0212674 C18.9553528,9.62858081 18.9971009,9.22873264 19,8.82769097 C19,6.00726989 17.0842285,3.72753914 14.8008424,3.80512153 C14.0714111,1.61252178 12.1115723,0.102647569 9.86181641,0 C7.57727051,0.110405778 5.59713741,1.66384549 4.88800056,3.90180114 Z" id="Path" fill="#EAEAEA"></path>
              <path d="M6.80957031,5.85329861 C7.1574707,3.87792961 8.44122322,2.44444444 9.86181641,2.44444444 C11.4192506,2.6610786 12.64328,3.92268876 12.8514404,5.52625868 C12.9337768,5.87657339 13.1622314,6.17198358 13.4759216,6.33251957 C13.7896119,6.49365231 14.156067,6.50320092 14.4772949,6.359375 C14.6164551,6.29134122 14.7677917,6.25314678 14.9214478,6.24717882 C15.7842408,6.24717882 16.5217896,7.27962247 16.6145631,8.55555556 L2.38543694,8.55555556 C2.50836189,6.87141919 3.81298828,5.66710069 4.88568108,6.57899306 C5.21096805,6.85411237 5.65396122,6.93109817 6.04940792,6.78249779 C6.44485477,6.63330082 6.73361202,6.27940531 6.80957031,5.85329861 Z" id="Path" fill="#FFFFFF"></path>
            </g>
            <g id="Group-6-Copy-2" transform="translate(98.000000, 16.000000)">
              <path d="M4.88800056,3.90180114 C4.62301632,3.83615451 4.35107422,3.80273438 4.07855217,3.80273438 C1.82995605,3.80273438 0,6.05740025 0,8.82769097 C0.0028991625,9.22873264 0.0446471797,9.62858081 0.125244141,10.0212674 C0.238311805,10.5906032 0.724792406,11 1.28955078,11 L17.7104492,11 C18.2752076,11 18.7616882,10.5906032 18.8747559,10.0212674 C18.9553528,9.62858081 18.9971009,9.22873264 19,8.82769097 C19,6.00726989 17.0842285,3.72753914 14.8008424,3.80512153 C14.0714111,1.61252178 12.1115723,0.102647569 9.86181641,0 C7.57727051,0.110405778 5.59713741,1.66384549 4.88800056,3.90180114 Z" id="Path" fill="#EAEAEA"></path>
              <path d="M6.80957031,5.85329861 C7.1574707,3.87792961 8.44122322,2.44444444 9.86181641,2.44444444 C11.4192506,2.6610786 12.64328,3.92268876 12.8514404,5.52625868 C12.9337768,5.87657339 13.1622314,6.17198358 13.4759216,6.33251957 C13.7896119,6.49365231 14.156067,6.50320092 14.4772949,6.359375 C14.6164551,6.29134122 14.7677917,6.25314678 14.9214478,6.24717882 C15.7842408,6.24717882 16.5217896,7.27962247 16.6145631,8.55555556 L2.38543694,8.55555556 C2.50836189,6.87141919 3.81298828,5.66710069 4.88568108,6.57899306 C5.21096805,6.85411237 5.65396122,6.93109817 6.04940792,6.78249779 C6.44485477,6.63330082 6.73361202,6.27940531 6.80957031,5.85329861 Z" id="Path" fill="#FFFFFF"></path>
            </g>
            <g id="Group-6-Copy-3" transform="translate(0.000000, 5.000000)">
              <path d="M4.88800056,3.90180114 C4.62301632,3.83615451 4.35107422,3.80273438 4.07855217,3.80273438 C1.82995605,3.80273438 0,6.05740025 0,8.82769097 C0.0028991625,9.22873264 0.0446471797,9.62858081 0.125244141,10.0212674 C0.238311805,10.5906032 0.724792406,11 1.28955078,11 L17.7104492,11 C18.2752076,11 18.7616882,10.5906032 18.8747559,10.0212674 C18.9553528,9.62858081 18.9971009,9.22873264 19,8.82769097 C19,6.00726989 17.0842285,3.72753914 14.8008424,3.80512153 C14.0714111,1.61252178 12.1115723,0.102647569 9.86181641,0 C7.57727051,0.110405778 5.59713741,1.66384549 4.88800056,3.90180114 Z" id="Path" fill="#EAEAEA"></path>
              <path d="M6.80957031,5.85329861 C7.1574707,3.87792961 8.44122322,2.44444444 9.86181641,2.44444444 C11.4192506,2.6610786 12.64328,3.92268876 12.8514404,5.52625868 C12.9337768,5.87657339 13.1622314,6.17198358 13.4759216,6.33251957 C13.7896119,6.49365231 14.156067,6.50320092 14.4772949,6.359375 C14.6164551,6.29134122 14.7677917,6.25314678 14.9214478,6.24717882 C15.7842408,6.24717882 16.5217896,7.27962247 16.6145631,8.55555556 L2.38543694,8.55555556 C2.50836189,6.87141919 3.81298828,5.66710069 4.88568108,6.57899306 C5.21096805,6.85411237 5.65396122,6.93109817 6.04940792,6.78249779 C6.44485477,6.63330082 6.73361202,6.27940531 6.80957031,5.85329861 Z" id="Path" fill="#FFFFFF"></path>
            </g>
          </g>  
        </g>
      </g>
    </g>
  </g>
</svg>